<?xml version="1.0" standalone="no"?><!DOCTYPE svg PUBLIC "-//W3C//DTD SVG 1.1//EN" "http://www.w3.org/Graphics/SVG/1.1/DTD/svg11.dtd"><svg t="1593868013084" class="icon" viewBox="0 0 1117 1024" version="1.1" xmlns="http://www.w3.org/2000/svg" p-id="2630" xmlns:xlink="http://www.w3.org/1999/xlink" width="218.1640625" height="200"><defs><style type="text/css"></style></defs><path d="M55.876422 0h1005.381818c19.968 0 38.4 10.24 48.407273 26.949818 9.960727 16.663273 9.960727 37.236364 0 53.899637-10.007273 16.663273-28.439273 26.949818-48.407273 26.949818H55.876422c-19.968 0-38.4-10.24-48.407273-26.996364A52.270545 52.270545 0 0 1 7.469149 26.996364C17.522967 10.24 35.954967 0 55.876422 0z m0 916.200727h1005.381818c30.859636 0 55.854545 24.157091 55.854545 53.899637 0 29.789091-24.994909 53.899636-55.854545 53.899636H55.876422C25.016785 1024 0.021876 999.889455 0.021876 970.100364c0-29.789091 24.994909-53.899636 55.854546-53.899637z m0-458.100363h1005.381818c30.859636 0 55.854545 24.157091 55.854545 53.899636 0 29.789091-24.994909 53.899636-55.854545 53.899636H55.876422C25.016785 565.899636 0.021876 541.742545 0.021876 512c0-29.789091 24.994909-53.899636 55.854546-53.899636z" p-id="2631" fill="#707070"></path></svg>