<?xml version="1.0" standalone="no"?><!DOCTYPE svg PUBLIC "-//W3C//DTD SVG 1.1//EN" "http://www.w3.org/Graphics/SVG/1.1/DTD/svg11.dtd"><svg t="1593858588065" class="icon" viewBox="0 0 1024 1024" version="1.1" xmlns="http://www.w3.org/2000/svg" p-id="4242" xmlns:xlink="http://www.w3.org/1999/xlink" width="200" height="200"><defs><style type="text/css"></style></defs><path d="M656.3 961.5H101.7c-17.1 0-31.2-13.1-31.6-29.2C65 665.9 309.7 513.8 326.6 503.7c45.5 32.6 101.1 52.1 161.3 52.1 153.1 0 277.6-124.5 277.6-277.6C765.5 125 641 0.5 487.9 0.5S210.3 125 210.3 278.1c0 69.8 26.1 133.5 68.7 182.3-64 42.1-276 202.5-270.8 473 0.9 49.6 42.9 90 93.5 90h554.6c17.1 0 31-13.9 31-31s-13.9-30.9-31-30.9z m-168.4-899c118.9 0 215.6 96.7 215.6 215.6s-96.7 215.6-215.6 215.6S272.3 397 272.3 278.1 369 62.5 487.9 62.5z" p-id="4243" fill="#cdcdcd"></path><path d="M1014 697.8c-2.5-14.2-15.5-27.9-29.6-31.2l-5.3-1.2c-16.1-5-28.3-14.5-36.1-28-7.6-13.2-9.9-28.5-6.8-43.3l2.2-7.4c4-13.1-0.5-29.9-10.2-39.6l-0.2-0.2c-0.6-0.6-1.1-1.1-1.7-1.6-5.8-4.9-17.6-12.2-27.6-18-20.7-11.9-29.5-15-30.4-15.3-3.5-1.2-7.2-1.7-11-1.6-7.7 0.3-15.4 2.4-22.1 6.2-2.9 1.6-5.5 3.7-7.7 6.1l-3.6 3.9c-22.8 21-61.2 21.7-83.1 1.6l-5.5-5.9c-2-2.1-4.2-3.9-6.7-5.4-7-4.1-14.9-6.4-23.3-6.5-5.5 0-11.7 0-40.8 16.9-15.7 9.1-23.7 14.9-28.2 18.5-10.7 9.2-15.8 27.2-11.5 40.9l1.6 5.3c3.7 16.2 1.6 31.9-6.2 45.5-7.5 13.1-19.4 22.8-33.8 27.4l-8.1 1.9c-14 3.4-26.6 16.7-29.3 31.7-0.3 1.7-1.6 11.5-1.6 32.5 0 17.6 0.9 27.3 1.5 31.5 0.1 0.6 0.2 1.1 0.3 1.7 2.6 14.1 15.6 27.7 29.8 31l5.1 1.1c15.9 4.8 28.5 14.6 36.3 28 7.7 13.4 10.1 28.7 6.8 43.4l-2.1 7.1c-4.4 14.1 0.7 32 12.9 42.4 2.6 2.1 10.5 7.9 26.7 17.3 29.2 16.9 34.3 17.5 40.2 16.9 8.3 0 16.5-2.3 23.6-6.4 2.7-1.6 5.2-3.6 7.3-5.9l3.3-3.6c12.3-11.4 27-17.4 42.6-17.4 15.4 0 30.1 5.8 41.3 16.3l5 5.3c1.4 1.5 3 2.9 4.7 4.1 7.3 5.1 15.9 7.9 24.6 7.9 1.2 0.1 2.7-0.1 4.2-0.2 2.9-0.3 5.8-0.9 8.6-2 1.6-0.6 10.6-4.3 28.8-14.8 19.7-11.4 27.1-17.6 27.7-18.1 11.1-9.4 16.3-27 12-41.2l-1.6-5.3c-3.7-16.3-1.6-32 6.1-45.4 7.7-13.4 20-23.2 34.7-27.7l6.8-1.6c14.2-3.3 26.9-16.6 29.6-30.9 0.1-0.5 0.2-1 0.2-1.5 0.5-3.5 1.6-13.3 1.6-31.9-0.1-11.3-0.5-24.9-2-33.3z m-60.2 41.5c-27.3 9.8-50 28.9-64.6 54.2-14.2 24.7-19.1 53.9-14.2 82.9-2.1 1.3-4.5 2.7-7.2 4.3-2.7 1.5-5 2.9-7.2 4-22.1-18.7-49.9-28.9-79-28.9-28.6 0-56.3 10.2-78.9 28.9-2.1-1.2-4.5-2.5-7.2-4-2.7-1.6-5.1-3-7.2-4.3 5.2-28.4 0.2-57.7-14.5-83.2-14.4-24.8-37-43.7-64.5-53.9-0.1-2.5-0.1-5.3-0.1-8.6 0-3.1 0-5.9 0.1-8.4 27.4-9.8 50.2-28.9 64.6-54.3 14.2-24.8 19.2-54 14.3-82.9 2.1-1.3 4.6-2.7 7.3-4.3 2.6-1.5 4.9-2.8 7-3.9 43.8 36.8 112.8 36.6 158-0.1 2.1 1.2 4.5 2.5 7.2 4 2.7 1.6 5.1 3 7.2 4.3-5.1 28.5-0.1 57.8 14.4 83.2 14.5 25.1 36.7 43.7 64.6 53.9 0.1 2.5 0.1 5.3 0.1 8.5-0.1 3.3-0.1 6.1-0.2 8.6z" p-id="4244" fill="#cdcdcd"></path><path d="M781.5 641.8c-49.1 0-89.1 40-89.1 89.1 0 49.1 40 89.1 89.1 89.1s89.1-40 89.1-89.1c0-49.1-39.9-89.1-89.1-89.1z m0 116.2c-14.9 0-27.1-12.2-27.1-27.1 0-14.9 12.2-27.1 27.1-27.1 14.9 0 27.1 12.2 27.1 27.1 0 14.9-12.1 27.1-27.1 27.1z" p-id="4245" fill="#cdcdcd"></path></svg>